<?xml version="1.0" standalone="no"?>
<!DOCTYPE svg PUBLIC "-//W3C//DTD SVG 20010904//EN"
 "http://www.w3.org/TR/2001/REC-SVG-20010904/DTD/svg10.dtd">
<svg version="1.0" xmlns="http://www.w3.org/2000/svg"
 width="186.000000pt" height="186.000000pt" viewBox="0 0 186.000000 186.000000"
 preserveAspectRatio="xMidYMid meet">
<metadata>
Created by potrace 1.14, written by Peter Selinger 2001-2017
</metadata>
<g transform="translate(0.000000,186.000000) scale(0.100000,-0.100000)"
fill="#000000" stroke="none">
<path d="M877 1854 c-1 -1 -29 -5 -62 -8 -276 -27 -557 -218 -697 -476 -106
-195 -141 -469 -84 -662 15 -51 9 -61 96 142 34 80 72 165 83 190 24 54 233
531 254 579 l15 35 32 -75 c42 -95 306 -685 344 -770 16 -35 66 -147 111 -249
45 -102 97 -206 116 -232 42 -58 98 -94 156 -103 50 -8 61 -13 54 -25 -8 -14
-517 -10 -512 4 2 6 20 12 40 14 46 4 61 28 54 86 -4 30 -284 806 -384 1066
-10 24 -11 23 -32 -25 -13 -28 -45 -106 -72 -175 -28 -69 -56 -138 -63 -155
-7 -16 -57 -141 -111 -277 l-98 -247 34 -55 c113 -181 311 -329 522 -390 268
-78 545 -33 778 125 207 140 358 383 393 629 8 55 8 214 1 255 -14 76 -29 135
-34 135 -3 -1 -62 -130 -131 -288 -68 -158 -164 -378 -213 -490 l-90 -203 -74
168 c-40 92 -82 186 -92 208 -18 37 -179 399 -330 740 -102 230 -151 289 -259
310 -61 12 -82 34 -35 36 15 1 32 1 38 -1 12 -2 408 -2 421 1 22 4 33 -2 28
-15 -3 -8 -22 -16 -41 -18 -50 -4 -59 -24 -46 -95 6 -32 95 -287 199 -566 171
-461 189 -506 201 -485 6 13 89 215 184 451 l171 427 -33 57 c-19 31 -72 96
-119 144 -175 179 -386 273 -638 283 -40 1 -73 1 -75 0z"/>
</g>
</svg>
